<svg width="1082" height="608" viewBox="0 0 1082 608" fill="none" xmlns="http://www.w3.org/2000/svg">
<path d="M60.3908 530.15C40.8468 530.15 27.5569 524.743 20.5211 513.928C13.6156 503.114 10.1628 485.329 10.1628 460.573C10.1628 435.818 13.6808 418.228 20.7166 407.805C27.7524 397.251 40.9771 391.974 60.3908 391.974C71.9868 391.974 84.7555 393.603 98.6969 396.86L97.9151 414.45C86.1887 412.365 74.4624 411.323 62.736 411.323C51.0097 411.323 43.0618 414.841 38.8924 421.876C34.7231 428.782 32.6384 441.876 32.6384 461.16C32.6384 480.313 34.6579 493.407 38.697 500.443C42.7361 507.349 50.6188 510.801 62.3451 510.801C74.0715 510.801 85.9282 509.824 97.9151 507.87L98.5014 525.85C85.0813 528.717 72.3777 530.15 60.3908 530.15ZM143.442 480.313V528H121.748V394.124H172.562C202.79 394.124 217.904 408.326 217.904 436.73C217.904 455.753 210.608 468.652 196.015 475.427L218.1 528H194.256L174.907 480.313H143.442ZM195.624 436.925C195.624 420.899 187.937 412.886 172.562 412.886H143.442V461.551H172.953C180.771 461.551 186.504 459.336 190.152 454.906C193.8 450.345 195.624 444.352 195.624 436.925ZM242.562 528V394.124H326.991V413.082H264.255V450.997H315.265V469.759H264.255V508.847H326.991V528H242.562ZM396.907 528H350.588V394.124H396.907C417.493 394.124 431.565 399.336 439.122 409.759C446.679 420.183 450.457 436.534 450.457 458.814C450.457 470.15 449.675 479.792 448.112 487.739C446.679 495.557 444.073 502.658 440.294 509.042C432.868 521.681 418.405 528 396.907 528ZM427.982 458.814C427.982 442.658 425.962 430.997 421.923 423.831C417.884 416.665 409.545 413.082 396.907 413.082H372.281V508.847H396.907C409.806 508.847 418.405 504.091 422.705 494.58C424.789 489.759 426.157 484.612 426.809 479.14C427.591 473.668 427.982 466.893 427.982 458.814ZM475.791 528V394.124H497.485V528H475.791ZM567.56 410.932C551.013 410.932 542.74 416.73 542.74 428.326C542.74 434.319 544.694 438.619 548.603 441.225C552.512 443.701 561.111 446.828 574.401 450.606C587.821 454.254 597.267 458.684 602.739 463.896C608.212 468.977 610.948 477.055 610.948 488.13C610.948 502.202 606.909 512.756 598.831 519.792C590.883 526.697 580.003 530.15 566.192 530.15C555.117 530.15 542.87 528.847 529.45 526.241L522.414 524.873L524.564 507.479C542.153 509.824 555.573 510.997 564.824 510.997C580.981 510.997 589.059 503.831 589.059 489.498C589.059 483.896 587.235 479.792 583.586 477.186C579.938 474.45 571.73 471.518 558.961 468.391C546.192 465.134 536.681 460.704 530.427 455.101C524.173 449.499 521.046 440.639 521.046 428.521C521.046 416.404 524.955 407.284 532.772 401.16C540.72 394.906 551.665 391.779 565.606 391.779C575.639 391.779 587.495 392.951 601.176 395.297L608.016 396.469L606.257 414.059C588.016 411.974 575.117 410.932 567.56 410.932ZM673.678 410.932C657.131 410.932 648.857 416.73 648.857 428.326C648.857 434.319 650.811 438.619 654.72 441.225C658.629 443.701 667.228 446.828 680.518 450.606C693.938 454.254 703.385 458.684 708.857 463.896C714.329 468.977 717.065 477.055 717.065 488.13C717.065 502.202 713.026 512.756 704.948 519.792C697 526.697 686.121 530.15 672.31 530.15C661.235 530.15 648.987 528.847 635.567 526.241L628.531 524.873L630.681 507.479C648.271 509.824 661.691 510.997 670.942 510.997C687.098 510.997 695.176 503.831 695.176 489.498C695.176 483.896 693.352 479.792 689.704 477.186C686.056 474.45 677.847 471.518 665.078 468.391C652.31 465.134 642.798 460.704 636.544 455.101C630.29 449.499 627.163 440.639 627.163 428.521C627.163 416.404 631.072 407.284 638.89 401.16C646.837 394.906 657.782 391.779 671.723 391.779C681.756 391.779 693.613 392.951 707.293 395.297L714.134 396.469L712.375 414.059C694.134 411.974 681.235 410.932 673.678 410.932ZM761.228 485.199C761.228 502.528 770.349 511.192 788.59 511.192C806.831 511.192 815.951 502.528 815.951 485.199V394.124H837.841V484.808C837.841 500.573 833.671 512.104 825.333 519.401C817.124 526.567 804.811 530.15 788.395 530.15C772.108 530.15 759.86 526.567 751.652 519.401C743.444 512.104 739.339 500.573 739.339 484.808V394.124H761.228V485.199ZM867.624 528V394.124H952.054V413.082H889.318V450.997H940.327V469.759H889.318V508.847H952.054V528H867.624ZM997.344 480.313V528H975.65V394.124H1026.46C1056.69 394.124 1071.81 408.326 1071.81 436.73C1071.81 455.753 1064.51 468.652 1049.92 475.427L1072 528H1048.16L1028.81 480.313H997.344ZM1049.53 436.925C1049.53 420.899 1041.84 412.886 1026.46 412.886H997.344V461.551H1026.85C1034.67 461.551 1040.41 459.336 1044.05 454.906C1047.7 450.345 1049.53 444.352 1049.53 436.925Z" fill="#2D31A6"/>
<circle cx="242.427" cy="364.589" r="9.17292" fill="#D9D9D9" fill-opacity="0.1"/>
<path d="M694.713 223.31C682.739 244.552 665.093 262.963 642.448 276.039C575.032 314.96 488.829 291.863 449.907 224.447C449.673 224.043 449.442 223.638 449.213 223.232M712.94 155.169C713.169 130.827 707.091 106.106 694.038 83.498C661.2 26.6205 594.706 1.28854 534.235 18.1341M431.005 155.276C430.69 117.509 445.585 80.4477 473.202 53.3713M586.121 237.374C595.766 235.739 605.288 232.39 614.258 227.212C654.707 203.859 668.565 152.137 645.211 111.688C640.005 102.67 633.389 94.9741 625.803 88.7175M518.055 219.155C510.505 212.912 503.919 205.24 498.733 196.257C475.38 155.808 489.239 104.086 529.688 80.7333C538.597 75.5897 548.053 72.2512 557.632 70.6045" stroke="#2D31A6" stroke-width="25" stroke-linecap="round" stroke-linejoin="round"/>
<path d="M568.633 184.822C585.841 184.822 599.79 170.872 599.79 153.665C599.79 136.457 585.841 122.507 568.633 122.507C551.425 122.507 537.476 136.457 537.476 153.665C537.476 170.872 551.425 184.822 568.633 184.822Z" stroke="#2D31A6" stroke-width="25"/>
</svg>
